<?xml version="1.0" standalone="no"?>
<!DOCTYPE svg PUBLIC "-//W3C//DTD SVG 1.1//EN" "http://www.w3.org/Graphics/SVG/1.1/DTD/svg11.dtd" >
<svg>
<metadata>
Created by FontForge 20090622 at Thu Jul 14 11:33:28 2016
 By deploy user
Copyright c 1992 by CC Font ManipSystems
</metadata>
<defs>
<font id="FuturaMediumItalic" horiz-adv-x="914" >
  <font-face 
    font-family="Futura-Medium Italic"
    font-weight="400"
    font-style="italic"
    font-stretch="normal"
    units-per-em="2048"
    panose-1="2 11 5 0 0 0 0 0 0 0"
    ascent="1638"
    descent="-410"
    x-height="848"
    cap-height="1350"
    bbox="-232 -432 2015 1708"
    underline-thickness="50"
    underline-position="-75"
    unicode-range="U+0020-U+203A"
  />
<missing-glyph horiz-adv-x="1536" 
d="M256 0v1280h1024v-1280h-1024zM1248 32v1216h-960v-1216h960z" />
    <glyph glyph-name=".notdef" horiz-adv-x="1536" 
d="M256 0v1280h1024v-1280h-1024zM1248 32v1216h-960v-1216h960z" />
    <glyph glyph-name=".null" horiz-adv-x="0" 
 />
    <glyph glyph-name="nonmarkingreturn" horiz-adv-x="0" 
 />
    <glyph glyph-name="space" unicode=" " horiz-adv-x="414" 
 />
    <glyph glyph-name="exclam" unicode="!" horiz-adv-x="305" 
d="M137 226q-56 0 -87.5 -37t-31.5 -86q0 -48 32 -84q30 -36 87 -36q55 0 85 36t30 84q0 50 -30 86.5t-85 36.5zM69 312h189l125 1038h-182z" />
    <glyph glyph-name="quotedbl" unicode="&#x22;" horiz-adv-x="658" 
d="M61 889l111 -65l289 448l-160 94zM364 889l113 -65l287 448l-160 94z" />
    <glyph glyph-name="dollar" unicode="$" horiz-adv-x="828" 
d="M-33 250q61 -134 134 -193q74 -60 208 -82l-26 -217h113l32 217q111 9 199 60t138.5 140.5t50.5 205.5q0 85 -28 146q-28 62 -94.5 118t-187.5 123q-104 58 -146 109t-42 121q0 57 26 103q26 47 73 73t105 26q66 0 119 -36.5t109 -116.5l131 121q-64 103 -124 145
t-156 57l24 193h-119l-24 -189q-108 -10 -189 -63t-125.5 -140t-44.5 -194q0 -87 25 -148.5t91.5 -118.5t189.5 -124q101 -60 144.5 -112t43.5 -121q0 -92 -66 -152q-66 -59 -168 -59q-62 0 -104 19t-80.5 67.5t-87.5 140.5z" />
    <glyph glyph-name="percent" unicode="%" horiz-adv-x="1317" 
d="M137 -47h134l278 412l709 1032h-135l-287 -412zM975 615q-135 0 -228 -95t-93 -233q0 -88 41.5 -160.5t115 -114t160.5 -41.5t162 43.5t118 118.5q44 74 44 162q0 85 -44 158.5t-117.5 117.5t-158.5 44zM971 471q79 0 123.5 -50.5t44.5 -121.5q0 -73 -46 -126.5
t-126 -53.5q-78 0 -121 51t-43 121q0 45 19.5 87t57.5 67.5t91 25.5zM412 1379q-88 0 -161 -44t-115 -120q-42 -75 -42 -164q0 -134 91.5 -227t226.5 -93q88 0 162 43.5t116.5 118t42.5 162.5q0 66 -24 124.5t-69 103.5q-44 45 -102.5 70.5t-125.5 25.5zM408 1231
q81 0 126.5 -54.5t45.5 -125.5q0 -72 -45 -123.5t-127 -51.5q-80 0 -123 51.5t-43 123.5q0 71 44 125.5t122 54.5z" />
    <glyph glyph-name="ampersand" unicode="&#x26;" horiz-adv-x="1141" 
d="M772 158l107 -158h215l-196 287q81 72 108.5 100.5t59.5 77.5l-105 113l-35 -39l-59.5 -61.5l-59.5 -61.5l-206 303l20 12q129 82 187.5 161t58.5 169q0 79 -41 143q-40 64 -111 101t-156 37q-86 0 -153 -37.5t-103.5 -105t-36.5 -152.5q0 -72 24 -134q23 -61 83 -141
q-134 -74 -213 -143t-115.5 -145t-36.5 -168q0 -97 46.5 -175t129.5 -121q83 -45 185 -45q104 0 195 40.5t208 142.5zM679 297q-163 -155 -302 -155q-77 0 -129 51q-51 52 -51 131q0 54 23 100t78 95t155 116zM518 860q-38 57 -52 97q-13 40 -13 90q0 62 30.5 97.5
t88.5 35.5q111 0 111 -111q0 -57 -36 -102.5t-129 -106.5z" />
    <glyph glyph-name="quotesingle" unicode="'" horiz-adv-x="346" 
d="M53 889l111 -65l291 448l-162 94z" />
    <glyph glyph-name="parenleft" unicode="(" horiz-adv-x="436" 
d="M193 -369l154 72q-48 122 -77 208t-44.5 156t-21.5 137q-7 68 -7 153q0 135 25 261t71 247.5t106 234.5q61 112 140 233l-131 97q-104 -151 -177 -286.5t-117 -262t-64 -258.5q-21 -131 -21 -283q0 -125 14 -225t49 -214q36 -115 101 -270z" />
    <glyph glyph-name="parenright" unicode=")" horiz-adv-x="436" 
d="M-74 -275l125 -94q134 188 218 360q84 173 125.5 347t41.5 357q0 179 -33 329.5t-112 345.5l-25 60l-152 -68l27 -74q121 -323 121 -589q0 -171 -42 -338q-44 -167 -117.5 -320.5t-176.5 -315.5z" />
    <glyph glyph-name="asterisk" unicode="*" horiz-adv-x="613" 
d="M98 1043l39 -101l192 76l-24 -194l111 -17l25 203l159 -119l58 86l-156 113l176 78l-39 104l-174 -76l21 195l-109 10l-24 -197l-168 117l-62 -82l163 -114z" />
    <glyph glyph-name="comma" unicode="," horiz-adv-x="258" 
d="M-150 -211l109 -68l289 445l-162 105z" />
    <glyph glyph-name="hyphen" unicode="-" horiz-adv-x="482" 
d="M8 383h457l17 164h-453z" />
    <glyph glyph-name="period" unicode="." horiz-adv-x="258" 
d="M90 221q-52 0 -83 -37.5t-31 -84.5q0 -46 29 -81t81 -35q54 0 84 37q31 35 31 83q0 49 -29 83.5t-82 34.5z" />
    <glyph glyph-name="slash" unicode="/" horiz-adv-x="522" 
d="M-57 0h144l129 312l436 1038h-150l-133 -316z" />
    <glyph glyph-name="zero" unicode="0" horiz-adv-x="963" 
d="M576 1379q-196 0 -316 -140t-169.5 -340t-49.5 -395q0 -168 47.5 -288.5t138.5 -181.5q91 -63 218 -63q149 0 256 86q106 84 169 220.5t90 287t27 291.5q0 164 -48 281q-49 118 -142 180t-221 62zM580 1217q219 0 219 -373q0 -146 -36 -295q-35 -148 -93 -252
q-86 -168 -229 -168q-218 0 -218 332q0 158 36 320q36 163 91 270q88 166 230 166z" />
    <glyph glyph-name="one" unicode="1" horiz-adv-x="482" 
d="M86 1180l86 170h371l-156 -1350h-178l134 1180h-257z" />
    <glyph glyph-name="two" unicode="2" horiz-adv-x="828" 
d="M-58 0h834l19 158h-486l344 369q134 153 191 267.5t57 223.5q0 103 -50 185.5t-139 128.5q-90 47 -202 47q-126 0 -221 -53.5t-150 -155.5t-66 -244h189q31 270 240 270q90 0 145 -49q56 -50 56 -133q0 -142 -160 -340q-118 -147 -406 -457z" />
    <glyph glyph-name="three" unicode="3" horiz-adv-x="875" 
d="M-8 361q6 -124 55.5 -211.5t138.5 -133t210 -45.5q133 0 237 51.5t162 144t58 210.5q0 119 -61.5 204t-162.5 109q78 19 133 65q56 46 84.5 116.5t28.5 158.5q0 101 -47.5 180.5t-133 124t-192.5 44.5q-108 0 -196 -47q-87 -48 -142.5 -135.5t-69.5 -202.5h181
q45 206 227 206q89 0 136 -53.5t47 -132.5q0 -116 -84 -190q-41 -28 -85.5 -38.5t-150.5 -16.5l-15 -154q166 -3 241 -57t75 -171q0 -76 -37.5 -132t-97 -85.5t-125.5 -29.5q-94 0 -160.5 57t-69.5 164h-184z" />
    <glyph glyph-name="four" unicode="4" 
d="M-33 297l918 1157l-125 -1018h174l-24 -139h-168l-35 -297h-172l37 297h-605zM244 436h348l62 535z" />
    <glyph glyph-name="five" unicode="5" 
d="M-17 199q55 -109 172 -170q115 -62 261 -62q138 0 249 65q112 64 174 180t62 259q0 93 -34.5 174t-94.5 141.5t-139 93.5t-164 33q-74 0 -140 -22l79 297h497l25 162h-643l-193 -719h33q152 133 301 133q87 0 154 -37t103 -105t36 -155q0 -95 -41 -172t-114.5 -121.5
t-165.5 -44.5q-85 0 -156.5 44t-140.5 143z" />
    <glyph glyph-name="six" unicode="6" 
d="M412 832l455 518h-224l-372 -428q-103 -111 -158 -193.5t-77 -161.5q-23 -78 -23 -176q0 -93 30 -171q28 -78 84 -134q56 -55 134.5 -85t174.5 -30q132 0 241.5 63.5t170.5 174.5q62 111 62 248q0 115 -53 203.5t-143 136t-196 47.5q-48 0 -106 -12zM486 707
q109 0 172 -62q64 -62 64 -170q0 -97 -37 -174q-36 -77 -101 -120.5t-148 -43.5q-109 0 -174 68t-65 182q0 139 81 230q82 90 208 90z" />
    <glyph glyph-name="seven" unicode="7" 
d="M94 41l639 1139h-622l16 170h901l-788 -1383z" />
    <glyph glyph-name="eight" unicode="8" 
d="M675 713q76 17 133 62t87 113q31 67 31 146q0 96 -50.5 175t-137.5 124q-87 46 -193 46q-111 0 -206 -50t-150.5 -137.5t-55.5 -189.5q0 -194 185 -267q-84 -17 -150 -71t-103 -134q-36 -80 -36 -169q0 -114 52 -204t145 -140t210 -50q120 0 222.5 58.5t162.5 158.5
t60 216q0 119 -55 203t-151 110zM469 631q101 0 163.5 -64.5t62.5 -166.5q0 -115 -69.5 -189t-176.5 -74q-105 0 -169.5 62t-64.5 166q0 77 32 138t90 94.5t132 33.5zM535 1213q89 0 143.5 -53t54.5 -142q0 -97 -61 -159t-158 -62q-91 0 -140 56q-48 57 -48 136
q0 57 24 108.5t71.5 83.5t113.5 32z" />
    <glyph glyph-name="nine" unicode="9" 
d="M155 56l136 -112l426 476q145 166 199.5 280.5t54.5 250.5q0 98 -29.5 177t-84.5 135t-134 86t-174 30q-133 0 -243 -63.5t-173.5 -175.5t-63.5 -249q0 -119 53.5 -206.5t143 -134t195.5 -46.5q49 0 111 10zM549 1209q73 0 127 -30t83.5 -86.5t29.5 -133.5
q0 -92 -38 -164.5t-105.5 -113t-151.5 -40.5q-109 0 -170.5 63.5t-61.5 180.5q0 88 37.5 163t103 118t146.5 43z" />
    <glyph glyph-name="colon" unicode=":" horiz-adv-x="305" 
d="M193 772q-54 0 -84.5 -36.5t-30.5 -86.5t30 -86t85 -36t85.5 36t30.5 86t-31 86.5t-85 36.5zM129 221q-54 0 -86.5 -36.5t-32.5 -83.5q0 -48 31 -82q31 -36 86 -36q54 0 84 36q31 35 31 84q0 48 -30 83t-83 35z" />
    <glyph glyph-name="semicolon" unicode=";" horiz-adv-x="305" 
d="M-145 -211l112 -68l288 445l-161 105zM197 772q-54 0 -84 -36.5t-30 -86.5q0 -49 29 -85q30 -37 85 -37t86 36t31 86t-31.5 86.5t-85.5 36.5z" />
    <glyph glyph-name="less" unicode="&#x3c;" horiz-adv-x="658" 
d="M-4 465l236 -377l110 78l-186 291l269 311l-99 80zM287 465l235 -377l110 78l-183 291l262 311l-98 80z" />
    <glyph glyph-name="greater" unicode="&#x3e;" horiz-adv-x="658" 
d="M-33 170l95 -82l329 383l-241 373l-113 -76l186 -293zM248 170l102 -82l328 383l-233 373l-119 -76l188 -293z" />
    <glyph glyph-name="question" unicode="?" horiz-adv-x="699" 
d="M678 598h-180q-6 -51 -46 -80.5t-87 -29.5q-42 0 -70.5 24.5t-28.5 73.5q0 48 36.5 80.5t146.5 81.5q178 87 244.5 161t66.5 185q0 75 -41.5 137.5t-114 98.5t-163.5 36t-165.5 -40t-118.5 -113q-44 -72 -50 -162h180q11 73 46.5 107t102.5 34q62 0 97 -29t35 -81
q0 -46 -37 -79q-36 -33 -152 -89q-162 -76 -227.5 -150t-65.5 -178q0 -76 38 -138q37 -61 105 -97q67 -35 148 -35q86 0 152 33q66 34 104.5 98.5t44.5 150.5zM305 226q-56 0 -89 -37t-33 -86t32 -84q33 -36 90 -36q55 0 87 36.5t32 85.5q0 48 -32 84.5t-87 36.5z" />
    <glyph glyph-name="A" unicode="A" horiz-adv-x="1180" 
d="M-62 0l773 1417l438 -1417h-207l-94 340h-526l-180 -340h-204zM403 504h404l-137 514z" />
    <glyph glyph-name="B" unicode="B" horiz-adv-x="828" 
d="M-21 0l167 1349h278q365 0 365 -298q0 -80 -26.5 -150t-74 -118.5t-112.5 -69.5q116 -8 182 -89.5t66 -215.5q0 -121 -50 -214q-51 -92 -142 -143t-208 -51h-445zM193 153h94q96 0 171.5 19.5t124.5 73.5t49 150q0 114 -69 168q-69 55 -213 55h-102zM266 776h84
q78 0 137.5 29t92.5 82t33 123q0 86 -53 134t-148 48h-94z" />
    <glyph glyph-name="C" unicode="C" horiz-adv-x="1094" 
d="M1032 60l26 231q-60 -52 -114 -83q-53 -31 -107.5 -44.5t-119.5 -13.5q-99 0 -183 34t-145 98t-94 152.5t-33 196.5q0 161 63 288.5t176.5 198t258.5 70.5q113 0 202 -40.5t191 -137.5l27 217q-104 80 -206 116t-218 36q-196 0 -358 -99.5t-254.5 -271.5t-92.5 -381
q0 -189 83 -339t230 -233q148 -84 331 -84q93 0 169 21q77 20 168 68z" />
    <glyph glyph-name="D" unicode="D" horiz-adv-x="1141" 
d="M-8 0l164 1350h375q142 0 258 -43.5t197 -125.5t124 -199.5t43 -262.5q0 -199 -87.5 -364t-241.5 -260t-338 -95h-494zM205 166h207q167 0 290 65t187.5 189.5t64.5 296.5q0 146 -49.5 249t-144.5 156q-95 54 -225 54h-205z" />
    <glyph glyph-name="E" unicode="E" horiz-adv-x="738" 
d="M-21 0l167 1350h698l-20 -170h-506l-44 -373h502l-20 -170h-508l-56 -471h519l-21 -166h-711z" />
    <glyph glyph-name="F" unicode="F" horiz-adv-x="738" 
d="M-13 0l165 1350h696l-24 -170h-498l-44 -373h503l-21 -170h-506l-78 -637h-193z" />
    <glyph glyph-name="G" unicode="G" horiz-adv-x="1356" 
d="M1368 666h-575l-21 -162h383q-16 -100 -78 -181t-158 -127q-95 -47 -206 -47q-102 0 -185.5 35t-144 99.5t-93 155t-32.5 198.5q0 119 40 221q39 103 110 177q71 75 167.5 116t209.5 41q133 0 237 -53t205 -176l133 123q-122 154 -260 223q-138 70 -311 70
q-207 0 -377 -100q-170 -99 -267.5 -273t-97.5 -383q0 -187 84 -336t233 -232q150 -84 335 -84q334 0 516 228q77 93 112 198.5t41 268.5z" />
    <glyph glyph-name="H" unicode="H" horiz-adv-x="1094" 
d="M-4 0l164 1350h193l-62 -526h614l66 526h193l-168 -1350h-192l81 649h-614l-82 -649h-193z" />
    <glyph glyph-name="I" unicode="I" horiz-adv-x="258" 
d="M-21 0l167 1350h192l-166 -1350h-193z" />
    <glyph glyph-name="J" unicode="J" horiz-adv-x="613" 
d="M-47 142l137 116q30 -63 59.5 -89.5t73.5 -26.5q67 0 100.5 48.5t49.5 166.5l125 993h192l-122 -963q-17 -149 -56 -238.5t-108 -131.5t-176 -42q-97 0 -162 38.5t-113 128.5z" />
    <glyph glyph-name="K" unicode="K" horiz-adv-x="1004" 
d="M0 0l164 1350h193l-66 -557l504 557h242l-601 -643l515 -707h-225l-433 606l-27 -28l-73 -578h-193z" />
    <glyph glyph-name="L" unicode="L" horiz-adv-x="699" 
d="M-12 0l164 1350h195l-146 -1184h469l-18 -166h-664z" />
    <glyph glyph-name="M" unicode="M" horiz-adv-x="1534" 
d="M-47 0l424 1450l365 -1118l649 1118l90 -1450h-194l-35 885l-549 -945l-320 951l-233 -891h-197z" />
    <glyph glyph-name="N" unicode="N" horiz-adv-x="1180" 
d="M-21 0l177 1417l805 -1017l112 950h197l-172 -1410l-805 1019l-121 -959h-193z" />
    <glyph glyph-name="O" unicode="O" horiz-adv-x="1448" 
d="M811 1379q-159 0 -297 -57q-139 -56 -242 -157.5t-161 -237.5t-58 -292q0 -185 86.5 -337.5t236.5 -238.5q150 -88 331 -88q204 0 378 101t276 273q102 173 102 374q0 182 -87 334q-86 151 -236 238.5t-329 87.5zM799 1188q132 0 235 -58.5t160.5 -165t57.5 -245.5
q0 -117 -40.5 -220.5t-114 -180t-170.5 -118.5t-210 -42q-130 0 -233 59t-160.5 166t-57.5 244q0 121 39 224t112 179q72 77 169.5 117.5t212.5 40.5z" />
    <glyph glyph-name="P" unicode="P" horiz-adv-x="828" 
d="M-4 0l164 1350h326q124 0 212 -42q89 -41 136 -121t47 -189q0 -114 -47.5 -208.5t-134.5 -148.5q-97 -59 -299 -59h-138l-73 -582h-193zM283 752h133q266 0 266 237q0 102 -54 146q-55 45 -179 45h-115z" />
    <glyph glyph-name="Q" unicode="Q" horiz-adv-x="1448" 
d="M1020 34l-95.5 -27.5t-89.5 -22.5q-62 -12 -128 -12q-181 0 -331 86.5t-236.5 239t-86.5 337.5q0 204 100 375t272 270t378 99q140 0 259 -49q120 -51 209 -141t138 -211t49 -261q0 -116 -35 -222.5t-102 -198.5q-66 -92 -157 -167l239 -287h-219zM881 187l-174 213h227
l107 -129q110 96 158 201t48 247q0 139 -56 246t-157 165t-231 58q-116 0 -215 -41t-171 -116t-111.5 -177t-39.5 -223q0 -138 57.5 -246.5t159 -167.5t230.5 -59q69 0 168 29z" />
    <glyph glyph-name="R" unicode="R" 
d="M-17 0l167 1349h323q195 0 294.5 -83t99.5 -244q0 -115 -48 -204q-48 -88 -140 -141t-220 -66l420 -611h-213l-412 615l-78 -615h-193zM271 756h125q80 0 144 31t99 86t35 125q0 190 -238 190h-110z" />
    <glyph glyph-name="S" unicode="S" horiz-adv-x="828" 
d="M-33 246q46 -102 102 -162q55 -59 130 -86t180 -27q128 0 226 51q99 51 153 144t54 215q0 85 -28 147t-94 119t-184 121q-104 58 -148 110.5t-44 119.5q0 58 26 104t73.5 72t104.5 26q65 0 118.5 -36t113.5 -117l131 121q-127 211 -359 211q-114 0 -205 -52t-142.5 -144
t-51.5 -206q0 -87 27 -150q26 -62 91.5 -119t187.5 -126q100 -54 144 -106.5t44 -122.5q0 -92 -65.5 -151.5t-164.5 -59.5q-63 0 -107 20q-43 19 -82 68t-87 143z" />
    <glyph glyph-name="T" unicode="T" horiz-adv-x="828" 
d="M78 1176l29 174h850l-23 -174h-330l-145 -1176h-193l142 1176h-330z" />
    <glyph glyph-name="U" unicode="U" horiz-adv-x="1051" 
d="M1131 1350l-111 -879q-14 -119 -57 -215q-42 -97 -109.5 -163t-157.5 -101t-198 -35q-110 0 -203 35t-153 100q-41 41 -67.5 103.5t-26.5 196.5q0 7 0.5 12t0.5 14l111 932h193l-104 -854q-13 -69 -13 -123q0 -107 72 -171.5t186 -64.5q134 0 222.5 87.5t107.5 236.5
l114 889h193z" />
    <glyph glyph-name="V" unicode="V" horiz-adv-x="1094" 
d="M98 1350h207l240 -977l471 977h211l-737 -1422z" />
    <glyph glyph-name="W" unicode="W" horiz-adv-x="1661" 
d="M118 1350h190l194 -905l449 964l237 -968l395 909h201l-639 -1422l-244 994l-456 -994z" />
    <glyph glyph-name="X" unicode="X" horiz-adv-x="1004" 
d="M-33 0h205l346 535l242 -535h207l-315 670l450 680h-213l-340 -539l-231 539h-215l313 -668z" />
    <glyph glyph-name="Y" unicode="Y" horiz-adv-x="1004" 
d="M99 1350l361 -764l-80 -586h192l80 611l489 739h-215l-371 -582l-246 582h-210z" />
    <glyph glyph-name="Z" unicode="Z" horiz-adv-x="1004" 
d="M-51 0l832 1180h-635l18 170h954l-839 -1184h692l-16 -166h-1006z" />
    <glyph glyph-name="bracketleft" unicode="[" horiz-adv-x="436" 
d="M-51 -369h385l16 123h-204l63 525l129 1032h205l12 119h-387l-98 -764z" />
    <glyph glyph-name="bracketright" unicode="]" horiz-adv-x="436" 
d="M-99 -369h392l94 765l127 1034h-387l-13 -119h200l-66 -522l-121 -1035h-206z" />
    <glyph glyph-name="underscore" unicode="_" horiz-adv-x="789" 
d="M-90 -238l-4 -53h807l4 53h-807z" />
    <glyph glyph-name="grave" unicode="`" horiz-adv-x="305" 
d="M-114 1264l188 -262h127l-107 262h-208z" />
    <glyph glyph-name="a" unicode="a" 
d="M652 97l-13 -97h185l106 848h-188l-17 -121q-86 146 -266 146q-122 0 -224 -66q-101 -66 -160 -179q-58 -113 -58 -247q0 -115 48.5 -208t134 -145.5t191.5 -52.5q84 0 142 27.5t119 94.5zM469 711q109 0 165 -72t56 -176q0 -80 -32.5 -157t-93 -125t-140.5 -48
q-74 0 -125 34.5t-76 92t-25 125.5q0 78 33 154t95 124t143 48z" />
    <glyph glyph-name="b" unicode="b" 
d="M271 748q58 68 115 96.5t136 28.5q108 0 195 -53t135.5 -146.5t48.5 -208.5q0 -134 -58.5 -246.5t-159.5 -177.5t-222 -65q-91 0 -156 34q-66 35 -116 109l-17 -118l-180 -1l176 1434h185zM494 713q-81 0 -143 -48.5t-95 -124t-33 -155.5q0 -68 25 -125.5t76 -92
t125 -34.5q78 0 138.5 41t92.5 115t32 168q0 118 -57 187q-59 69 -161 69z" />
    <glyph glyph-name="c" unicode="c" horiz-adv-x="738" 
d="M690 43l23 187q-146 -97 -285 -97q-102 0 -164.5 70t-62.5 184q0 92 39 167q40 74 110 116.5t156 42.5q72 0 127 -25q55 -24 127 -90l25 191q-74 48 -140.5 68t-154.5 20q-137 0 -245 -63q-108 -62 -168 -175q-60 -112 -60 -256q0 -124 50 -217q51 -93 145 -144
q95 -51 220 -51q70 0 128 16t130 56z" />
    <glyph glyph-name="d" unicode="d" 
d="M824 1l-185 -1l13 97q-54 -63 -116.5 -92t-144.5 -29q-106 0 -191.5 52t-134 145t-48.5 208q0 134 58 247q59 113 160 179q102 66 224 66q180 0 266 -145l90 702h185zM469 711q-81 0 -143 -48t-94.5 -124t-32.5 -154q0 -68 24.5 -125.5t75.5 -92t125 -34.5q80 0 140.5 48
t93 125t32.5 157q0 104 -56 176t-165 72z" />
    <glyph glyph-name="e" unicode="e" horiz-adv-x="875" 
d="M819 158l-120 108q-112 -133 -267 -133q-218 0 -227 254h657q0 128 -14 201t-49 123q-107 166 -313 166q-135 0 -241 -64q-106 -63 -165.5 -176.5t-59.5 -255.5q0 -127 50 -220q48 -93 141 -143.5t221 -50.5q120 0 213.5 46t173.5 145zM223 522q10 59 46.5 103.5t88.5 67
t107 22.5q54 0 100.5 -21t75.5 -64.5t33 -107.5h-451z" />
    <glyph glyph-name="f" unicode="f" horiz-adv-x="522" 
d="M37 699h148l-82 -699h180l86 699h186l17 149h-189l41 281q13 86 37 120.5t78 34.5q47 0 113 -37l26 158q-81 49 -164 49q-84 0 -141 -40t-92 -124q-34 -84 -49 -217l-27 -225h-152z" />
    <glyph glyph-name="g" unicode="g" 
d="M-21 -92q10 -103 71 -180t153 -119q92 -41 190 -41q204 0 320 149q55 67 82 153t49 257l94 721h-188l-17 -121q-55 80 -122 117t-156 37q-123 0 -226 -65q-102 -65 -161.5 -177.5t-59.5 -247.5q0 -115 49 -207t135.5 -144t194.5 -52q82 0 142 27q61 27 129 92
q-19 -150 -51 -229q-31 -78 -84.5 -111t-143.5 -33q-100 0 -150 47t-69 156zM473 711q112 0 170 -73q58 -72 58 -179q0 -78 -32 -154q-34 -76 -95 -124t-142 -48q-74 0 -125 35t-75.5 92.5t-24.5 124.5q0 79 32.5 155t93.5 123q60 48 140 48z" />
    <glyph glyph-name="h" unicode="h" horiz-adv-x="789" 
d="M-8 0l176 1430h185l-87 -690q57 69 116 99t136 30q72 0 130 -29t91 -80.5t33 -118.5q0 -16 -8 -119l-69 -522h-181l66 543q0 80 -22.5 124t-98.5 44q-90 0 -150 -66t-77 -184l-60 -461h-180z" />
    <glyph glyph-name="i" unicode="i" horiz-adv-x="258" 
d="M-16 0h181l110 848h-185zM211 1247q-49 0 -77 -34q-27 -34 -27 -80t27.5 -80.5t76.5 -34.5q53 0 83 33.5t30 81.5q0 47 -29.5 80.5t-83.5 33.5z" />
    <glyph glyph-name="j" unicode="j" horiz-adv-x="258" 
d="M-61 -404l151 1252h185l-156 -1252h-180zM215 1247q53 0 82 -33.5t29 -80.5t-30 -81q-29 -34 -81 -34q-51 0 -81 35q-29 34 -29 80t29 80t81 34z" />
    <glyph glyph-name="k" unicode="k" horiz-adv-x="789" 
d="M-17 0l177 1430h182l-115 -922l386 340h239l-465 -391l363 -457h-211l-281 353l-53 -46l-41 -307h-181z" />
    <glyph glyph-name="l" unicode="l" horiz-adv-x="258" 
d="M-17 0l177 1430h182l-178 -1430h-181z" />
    <glyph glyph-name="m" unicode="m" horiz-adv-x="1227" 
d="M0 0l107 849l184 -1l-16 -100q48 54 111.5 85.5t125.5 31.5q136 0 201 -141q121 145 266 145q111 0 166 -78t55 -186q0 -28 -3 -58l-66 -547h-180l66 547q0 76 -20 118q-19 42 -87 42q-75 0 -128 -61q-54 -63 -69 -167l-59 -479h-181l70 553q0 73 -18 113q-18 41 -80 41
q-80 0 -134 -60t-71 -163l-60 -484h-180z" />
    <glyph glyph-name="n" unicode="n" horiz-adv-x="789" 
d="M-8 0h180l60 461q17 118 77 184t150 66q76 0 98.5 -44t22.5 -124l-66 -543h181l69 522q8 103 8 119q0 67 -33 118.5t-91 80.5t-130 29q-146 0 -252 -129l17 108h-184z" />
    <glyph glyph-name="o" unicode="o" 
d="M486 877q-130 0 -239 -63.5t-172 -172.5t-63 -237q0 -123 54.5 -222t151.5 -154q96 -57 218 -57q132 0 240 63q108 61 168.5 170.5t60.5 244.5q0 121 -54 219t-149 153q-96 56 -216 56zM477 711q78 0 132.5 -36.5t81 -96t26.5 -127.5q0 -78 -32.5 -151.5t-96.5 -119.5
q-63 -47 -147 -47q-119 0 -180 75q-63 75 -63 183q0 79 34 153t98 120q63 47 147 47z" />
    <glyph glyph-name="p" unicode="p" 
d="M-58 -396l152 1245l185 -1l-13 -100q59 68 116.5 96.5t139.5 28.5t151 -30t119.5 -85t77.5 -130q27 -74 27 -163q0 -132 -58 -243.5t-159 -176.5q-100 -65 -221 -65q-186 0 -270 139l-66 -515h-181zM494 713q-83 0 -145 -48t-95 -123t-33 -155q0 -105 58.5 -177.5
t169.5 -72.5q79 0 139 40.5t93 114.5q31 74 31 169q0 76 -26 133t-76 88t-116 31z" />
    <glyph glyph-name="q" unicode="q" 
d="M652 97q-60 -66 -118 -91.5t-143 -25.5q-105 0 -191 51t-135 143q-48 92 -48 207q0 134 58 247q59 113 160 179q102 66 224 66q180 0 266 -145l17 121l188 -1l-158 -1244h-180zM465 711q-80 0 -141 -48q-61 -47 -92 -123q-33 -76 -33 -155q0 -105 58 -178.5t167 -73.5
q81 0 142 48t93.5 124t32.5 154q0 69 -24.5 126t-76 91.5t-126.5 34.5z" />
    <glyph glyph-name="r" unicode="r" horiz-adv-x="568" 
d="M-4 0h180l47 361q27 180 80 257t152 77q45 0 94 -29l82 166q-61 35 -125 35q-132 0 -235 -140l12 121h-180z" />
    <glyph glyph-name="s" unicode="s" horiz-adv-x="568" 
d="M-43 119q50 -58 92 -91q43 -33 88 -47t103 -14q132 0 219 76t87 191q0 68 -37 118.5t-140 126.5q-87 60 -110 86t-23 66q0 38 24.5 62t61.5 24q63 0 139 -90l119 100q-64 84 -119 117t-135 33q-77 0 -141 -34.5t-101 -95.5t-37 -136q0 -73 38.5 -123.5t142.5 -122.5
q72 -44 98.5 -73.5t26.5 -65.5q0 -43 -31 -71q-30 -28 -78 -28q-85 0 -178 111z" />
    <glyph glyph-name="t" unicode="t" horiz-adv-x="522" 
d="M37 699h148l-86 -699h180l86 699h191l16 149h-188l45 340h-185l-43 -340h-148z" />
    <glyph glyph-name="u" unicode="u" horiz-adv-x="789" 
d="M803 848l-61 -483q-47 -385 -389 -385q-149 0 -234 85q-88 88 -88 225q0 27 6 63l62 495h183l-67 -541q0 -71 37 -116t113 -45q82 0 131 49q50 50 57 141l68 512h182z" />
    <glyph glyph-name="v" unicode="v" horiz-adv-x="828" 
d="M37 848l301 -916l551 916h-199l-303 -532l-155 532h-195z" />
    <glyph glyph-name="w" unicode="w" horiz-adv-x="1317" 
d="M41 848l297 -916l320 586l161 -586l558 916h-201l-297 -541l-162 611l-338 -611l-147 541h-191z" />
    <glyph glyph-name="x" unicode="x" horiz-adv-x="828" 
d="M-47 0h203l235 312l177 -312h209l-262 445l325 403h-205l-207 -287l-153 287h-209l239 -403z" />
    <glyph glyph-name="y" unicode="y" horiz-adv-x="828" 
d="M-41 -400l312 507l-230 741h195l147 -557l316 557h194l-741 -1248h-193z" />
    <glyph glyph-name="z" unicode="z" horiz-adv-x="789" 
d="M-51 0h780l17 150h-480l533 698h-721l-16 -149h420z" />
    <glyph glyph-name="quotedblbase" unicode="&#x201e;" horiz-adv-x="738" 
d="M-33 -211l107 -68l291 445l-160 105zM271 -211l108 -68l287 445l-160 105z" />
    <glyph glyph-name="dagger" unicode="&#x2020;" 
d="M58 727h350l-4 -28l-121 -1035h170l2 31l121 1032h363l16 150h-354l53 473h-168l-53 -473h-359z" />
    <glyph glyph-name="circumflex" unicode="&#x2c6;" horiz-adv-x="305" 
d="M-232 1002h178l148 157l86 -157h162l-145 262h-184z" />
    <glyph glyph-name="perthousand" unicode="&#x2030;" horiz-adv-x="2015" 
d="M142 -47h133l278 412l709 1032h-135l-287 -412zM979 615q-135 0 -228 -95t-93 -233q0 -89 41.5 -161t114.5 -113.5t161 -41.5q87 0 161.5 43.5t117.5 118.5t43 162q0 84 -43 158t-117 118q-73 44 -158 44zM975 471q80 0 124 -51t44 -121q0 -72 -45.5 -126t-126.5 -54
q-78 0 -121 51t-43 121q0 45 19.5 87t57.5 67.5t91 25.5zM416 1379q-88 0 -161 -44t-114 -120q-42 -75 -42 -164q0 -134 91 -227q92 -93 226 -93q88 0 162 43.5t117 118t43 162.5q0 65 -25 124q-24 59 -68.5 104t-103 70.5t-125.5 25.5zM412 1231q81 0 126.5 -54t45.5 -126
t-45 -123.5t-127 -51.5q-80 0 -123 51.5t-43 123.5q0 71 44 125.5t122 54.5zM1665 615q-87 0 -161 -43.5t-116 -118t-42 -162.5q0 -89 42 -163t115.5 -115.5t161.5 -41.5q87 0 160 43t115 117q43 74 43 160t-43 161t-117 119q-73 44 -158 44zM1661 471q79 0 123.5 -52
t44.5 -122q0 -72 -45 -125t-127 -53q-77 0 -120.5 51.5t-43.5 120.5q0 46 20 87q20 42 58 67.5t90 25.5z" />
    <glyph glyph-name="guilsinglleft" unicode="&#x2039;" horiz-adv-x="391" 
d="M8 465l236 -377l109 78l-185 291l268 311l-98 80z" />
    <glyph glyph-name="OE" unicode="&#x152;" horiz-adv-x="1929" 
d="M1179 166l-20 -166h702l21 166h-510l64 471h493l21 170h-494l41 373h498l20 170h-686l-28 -213q-54 79 -129.5 133.5t-169.5 81.5t-203 27q-204 0 -375 -100q-172 -99 -272 -271q-100 -171 -100 -373q0 -190 85.5 -342t237.5 -236q151 -86 336 -86q295 0 468 195z
M799 1196q129 0 232 -59q104 -60 162 -166.5t58 -239.5q0 -128 -39 -236q-38 -107 -110 -186q-72 -78 -171 -121q-100 -42 -218 -42q-132 0 -235 59q-103 60 -160 169t-57 253q0 164 70 294q68 130 190.5 202.5t277.5 72.5z" />
    <glyph glyph-name="quoteleft" unicode="&#x2018;" horiz-adv-x="346" 
d="M57 918l166 -94l238 481l-111 61z" />
    <glyph glyph-name="quoteright" unicode="&#x2019;" horiz-adv-x="346" 
d="M53 889l111 -65l291 448l-162 94z" />
    <glyph glyph-name="quotedblleft" unicode="&#x201c;" horiz-adv-x="658" 
d="M65 918l167 -94l237 481l-112 61zM368 918l167 -94l237 481l-114 61z" />
    <glyph glyph-name="quotedblright" unicode="&#x201d;" horiz-adv-x="658" 
d="M61 889l111 -65l289 448l-160 94zM364 889l113 -65l287 448l-160 94z" />
    <glyph glyph-name="emdash" unicode="&#x2013;" 
d="M0 383h910l20 164h-909z" />
    <glyph glyph-name="endash" unicode="&#x2014;" 
d="M0 383h910l20 164h-909z" />
    <glyph glyph-name="tilde" unicode="&#x2dc;" horiz-adv-x="305" 
d="M-209 1143l59 -92q66 39 121 39q36 0 72 -13l51 -22q53 -23 95 -23q98 0 190 93l-65 100q-61 -51 -117 -51q-34 0 -82 22q-76 33 -132 33q-96 0 -192 -86z" />
    <glyph glyph-name="guilsinglright" unicode="&#x203a;" horiz-adv-x="391" 
d="M-20 170l94 -82l330 383l-244 373l-112 -76l188 -293z" />
    <glyph glyph-name="oe" unicode="&#x153;" horiz-adv-x="1571" 
d="M811 133q102 -164 299 -164q108 0 215 52t181 137l-119 108q-113 -133 -254 -133q-213 0 -219 254h635q-1 147 -22 233.5t-71 147.5q-101 111 -256 111q-99 0 -195 -47t-161 -125q-127 168 -328 168q-90 0 -177.5 -35t-158 -100t-111.5 -153q-41 -87 -41 -187
q0 -122 55.5 -220.5t154.5 -152.5q98 -56 221 -56q112 0 195 39q83 37 157 123zM498 711q77 0 131.5 -36.5t81.5 -95.5t27 -128q0 -78 -33 -151.5t-97 -120t-149 -46.5q-105 0 -176.5 77.5t-71.5 193.5q0 127 83.5 217t203.5 90zM930 522q18 87 88.5 138t155.5 51
q80 0 137 -48q56 -47 62 -141h-443z" />
    <glyph glyph-name="nonbreakingspace" unicode="&#xa0;" horiz-adv-x="305" 
 />
    <glyph glyph-name="exclamdown" unicode="&#xa1;" horiz-adv-x="305" 
d="M-12 0h185l129 1034h-183zM236 1366q-55 0 -85 -36q-29 -36 -29 -87q0 -49 28 -83q29 -35 82 -35q57 0 89 36t32 86t-31 84.5t-86 34.5z" />
    <glyph glyph-name="cent" unicode="&#xa2;" horiz-adv-x="789" 
d="M346 -25l-21 -158h123l17 154q76 3 125.5 14t126.5 44l25 197q-150 -97 -287 -97q-100 0 -164 70t-64 184q0 93 40 167.5t110 117.5t158 43q69 0 125.5 -26t128.5 -87l22 187q-65 38 -113 55t-122 29l20 141h-123l-14 -141q-133 -17 -231 -80q-97 -64 -149 -168
q-51 -105 -51 -240q0 -111 36.5 -195t108.5 -137.5t173 -73.5z" />
    <glyph glyph-name="sterling" unicode="&#xa3;" horiz-adv-x="1094" 
d="M-33 111l95 -136q134 103 262 103q61 0 121 -27l100 -43q68 -29 154 -29q97 0 187 44q91 42 161 119l-105 133q-127 -121 -252 -121q-48 0 -91.5 14.5t-110.5 43.5t-101 38q31 85 40 139t9 150h353v131h-360q-15 86 -15 160q0 159 64 264.5t217 105.5q133 0 198 -78
t68 -245l180 35q-3 144 -57 249q-53 104 -150.5 158.5t-230.5 54.5q-146 0 -257.5 -67.5t-173 -190t-61.5 -280.5q0 -43 12 -166h-149v-131h166q6 -34 6 -64q0 -106 -49 -217q-127 -50 -230 -147z" />
    <glyph glyph-name="section" unicode="&#xa7;" horiz-adv-x="828" 
d="M0 -13q6 -81 16 -121t31 -73q48 -62 127 -95q79 -32 168 -32t166.5 33t125.5 98t48 156q0 163 -147 225q79 10 146 61.5t105 131t38 168.5q0 88 -31 150q-30 61 -106 117.5t-222 131.5q-59 29 -82 57q-22 28 -22 70q0 56 37.5 89.5t99.5 33.5q76 0 112 -38t44 -128h174
q-13 328 -322 328q-97 0 -175 -37q-78 -36 -122.5 -101t-44.5 -147q0 -69 35 -125q35 -55 98 -84q-128 -31 -200 -125t-72 -235q0 -104 47 -179q48 -75 151 -139l156 -90q66 -41 92 -73q27 -33 27 -75q0 -54 -39.5 -86t-108.5 -32q-79 0 -119 39q-41 40 -51 126h-180z
M432 723q93 0 148 -53t55 -148q0 -97 -70 -155t-161 -58q-82 0 -138.5 48.5t-56.5 138.5q0 104 61 165.5t162 61.5z" />
    <glyph glyph-name="dieresis" unicode="&#xa8;" horiz-adv-x="305" 
d="M-66 1247q-52 0 -80 -33t-28 -79t28 -79q29 -34 80 -34q49 0 79 34q28 34 28 79t-28.5 78.5t-78.5 33.5zM262 1247q-52 0 -81 -33.5t-29 -78.5q0 -44 29 -78q30 -35 81 -35t79 33.5t28 79.5t-28 79t-79 33z" />
    <glyph glyph-name="guillemotleft" unicode="&#xab;" horiz-adv-x="658" 
d="M-4 465l236 -377l110 78l-186 291l269 311l-99 80zM287 465l235 -377l110 78l-183 291l262 311l-98 80z" />
    <glyph glyph-name="acute" unicode="&#xb4;" horiz-adv-x="305" 
d="M-94 1002h141l271 262h-244z" />
    <glyph glyph-name="paragraph" unicode="&#xb6;" horiz-adv-x="1051" 
d="M441 -404h44v670v1035h197v-670v-1035h43v670v1035h246v49h-518q-110 0 -207 -33q-96 -34 -157 -107q-60 -74 -60 -188q0 -110 55 -181t148.5 -102.5t208.5 -31.5v-76v-1035z" />
    <glyph glyph-name="periodcentered" unicode="&#xb7;" horiz-adv-x="436" 
d="M248 832q-69 0 -110 -50q-41 -49 -41 -112q0 -64 38.5 -110t108.5 -46q73 0 113.5 48t40.5 114q0 62 -39.5 109t-110.5 47z" />
    <glyph glyph-name="cedilla" unicode="&#xb8;" horiz-adv-x="305" 
d="M-205 -353q84 -45 186 -45q89 0 148.5 40t59.5 124q0 62 -42 96.5t-102 34.5q-12 0 -36 -4l82 99h-99l-125 -146l39 -49q34 12 65 12q67 0 67 -55q0 -59 -79 -59q-72 0 -123 26z" />
    <glyph glyph-name="guillemotright" unicode="&#xbb;" horiz-adv-x="658" 
d="M-33 170l95 -82l329 383l-241 373l-113 -76l186 -293zM248 170l102 -82l328 383l-233 373l-119 -76l188 -293z" />
    <glyph glyph-name="questiondown" unicode="&#xbf;" horiz-adv-x="699" 
d="M459 1366q-56 0 -87.5 -35.5t-31.5 -85.5q0 -49 32 -85q31 -35 87 -35q55 0 84 35t29 85q0 51 -30 86q-29 35 -83 35zM658 301h-181q-23 -143 -147 -143q-64 0 -100.5 28.5t-36.5 79.5q0 50 45 86q46 36 207 113q233 105 233 291q0 77 -38 140t-105.5 98.5t-151.5 35.5
q-128 0 -207.5 -75t-89.5 -203h180q7 48 45.5 77t84.5 29q42 0 70 -24t28 -70q0 -47 -39 -82q-38 -36 -141 -84q-117 -54 -183.5 -104t-96.5 -106t-30 -130q0 -117 91.5 -196t226.5 -79q93 0 168 41q75 39 119 111.5t49 165.5z" />
    <glyph glyph-name="Agrave" unicode="&#xc0;" horiz-adv-x="1180" 
d="M-62 0h203l181 340h526l94 -340h207l-121 383l-317 1034l-213 -383zM403 504l267 514l137 -514h-404zM555 1655l191 -264h125l-107 264h-209z" />
    <glyph glyph-name="Aacute" unicode="&#xc1;" horiz-adv-x="1180" 
d="M-62 0h203l181 340h526l94 -340h207l-121 383l-317 1034l-213 -383zM403 504l267 514l137 -514h-404zM572 1391h145l270 264h-241z" />
    <glyph glyph-name="Acircumflex" unicode="&#xc2;" horiz-adv-x="1180" 
d="M-62 0h203l181 340h526l94 -340h207l-121 383l-317 1034l-213 -383zM403 504l267 514l137 -514h-404zM440 1391h172l152 158l88 -158h160l-145 264h-185z" />
    <glyph glyph-name="Atilde" unicode="&#xc3;" horiz-adv-x="1180" 
d="M-62 0h203l181 340h526l94 -340h207l-121 383l-317 1034l-213 -383zM403 504l267 514l137 -514h-404zM459 1532l59 -90q60 39 127 39q37 0 68 -10l51 -25q47 -26 94 -26q96 0 193 94l-68 102q-56 -53 -116 -53q-38 0 -82 20q-79 39 -136 39q-91 0 -190 -90z" />
    <glyph glyph-name="Adieresis" unicode="&#xc4;" horiz-adv-x="1180" 
d="M-62 0h203l181 340h526l94 -340h207l-121 383l-317 1034l-213 -383zM403 504l267 514l137 -514h-404zM604 1641q-53 0 -84 -35t-31 -82q0 -45 32 -80q30 -35 83 -35q49 0 77 34t28 79q0 48 -28 83q-29 36 -77 36zM934 1641q-52 0 -81 -35.5t-29 -83.5q0 -46 29 -79.5
t81 -33.5q33 0 57.5 17t36.5 43q13 26 13 55q0 48 -29 82q-28 35 -78 35z" />
    <glyph glyph-name="Aring" unicode="&#xc5;" horiz-adv-x="1180" 
d="M-62 0h203l181 340h526l94 -340h207l-121 383l-317 1034l-213 -383zM403 504l267 514l137 -514h-404zM764 1596q39 0 60.5 -25t21.5 -59q0 -36 -21.5 -61t-60.5 -25q-40 0 -64 25q-24 26 -24 61q0 33 24 58.5t64 25.5zM764 1708q-83 0 -140 -55q-56 -56 -56 -139
q0 -53 26.5 -97.5t72 -70t97.5 -25.5q87 0 135.5 58t48.5 137t-48.5 135.5t-135.5 56.5z" />
    <glyph glyph-name="AE" unicode="&#xc6;" horiz-adv-x="1710" 
d="M-48 0h223l171 336h539l86 -336h690l-49 166h-489l-124 475h464l-48 170l-458 1l-95 368h439l-49 170h-562l-172 -316zM432 496l279 555l133 -555h-412z" />
    <glyph glyph-name="Ccedilla" unicode="&#xc7;" horiz-adv-x="1094" 
d="M539 -13l-127 -141l43 -45q41 10 63 10q70 0 70 -57q0 -59 -78 -59q-69 0 -131 26l-33 -69q72 -50 181 -50q88 0 147 41q60 40 60 123q0 62 -42 97q-41 34 -100 34q-12 0 -37 -4l70 82q45 -4 67 -4q165 0 340 89l26 231q-60 -52 -114 -83q-53 -31 -107.5 -44.5
t-119.5 -13.5q-99 0 -183 34t-145 98t-94 152.5t-33 196.5q0 161 63 288.5t176.5 198t258.5 70.5q113 0 202 -40.5t191 -137.5l27 217q-104 80 -206 116t-218 36q-196 0 -358 -99.5t-254.5 -271.5t-92.5 -381q0 -159 58 -292t168 -222.5t262 -125.5z" />
    <glyph glyph-name="Egrave" unicode="&#xc8;" horiz-adv-x="738" 
d="M-21 0h711l21 166h-519l56 471h508l20 170h-502l44 373h506l20 170h-698l-39 -315zM325 1655l189 -264h125l-108 264h-206z" />
    <glyph glyph-name="Eacute" unicode="&#xc9;" horiz-adv-x="738" 
d="M-21 0h711l21 166h-519l56 471h508l20 170h-502l44 373h506l20 170h-698l-39 -315zM342 1391h144l270 264h-242z" />
    <glyph glyph-name="Ecircumflex" unicode="&#xca;" horiz-adv-x="738" 
d="M-21 0h711l21 166h-519l56 471h508l20 170h-502l44 373h506l20 170h-698l-39 -315zM205 1391h172l154 158l90 -158h160l-146 264h-182z" />
    <glyph glyph-name="Edieresis" unicode="&#xcb;" horiz-adv-x="738" 
d="M-21 0h711l21 166h-519l56 471h508l20 170h-502l44 373h506l20 170h-698l-39 -316zM369 1641q-52 0 -82.5 -36t-30.5 -83q0 -44 30.5 -78.5t82.5 -34.5q51 0 79.5 34.5t28.5 80.5q0 48 -28 82.5t-80 34.5zM699 1641q-51 0 -80 -35.5t-29 -83.5q0 -45 29.5 -79t79.5 -34
t79 34.5t29 80.5q0 48 -28.5 82.5t-79.5 34.5z" />
    <glyph glyph-name="Igrave" unicode="&#xcc;" horiz-adv-x="258" 
d="M-20 0h193l39 312l127 1038h-193l-39 -315zM87 1655l188 -264h121l-105 264h-204z" />
    <glyph glyph-name="Iacute" unicode="&#xcd;" horiz-adv-x="258" 
d="M-21 0h193l39 312l127 1038h-192l-39 -315zM102 1391h142l270 264h-239z" />
    <glyph glyph-name="Icircumflex" unicode="&#xce;" horiz-adv-x="258" 
d="M-21 0h193l39 312l128 1038h-193l-39 -316zM-37 1391h174l154 158l86 -158h162l-148 264h-182z" />
    <glyph glyph-name="Idieresis" unicode="&#xcf;" horiz-adv-x="258" 
d="M-21 0h193l39 312l127 1038h-192l-39 -316zM129 1641q-54 0 -84.5 -34.5t-30.5 -82.5q0 -46 30.5 -80.5t84.5 -34.5q49 0 77.5 34t28.5 79q0 48 -28 83q-29 36 -78 36zM459 1641q-52 0 -81 -36q-30 -35 -30 -83q0 -45 30 -79t81 -34t78.5 34.5t27.5 80.5q0 48 -27.5 82.5
t-78.5 34.5z" />
    <glyph glyph-name="Ntilde" unicode="&#xd1;" horiz-adv-x="1180" 
d="M-21 0l177 1417l805 -1017l112 950h197l-172 -1410l-805 1019l-121 -959h-193zM452 1532q97 90 189 90q56 0 131 -39q46 -20 82 -20q62 0 121 53l66 -102q-102 -92 -191 -92q-48 0 -100 24q-44 24 -62.5 29.5t-52.5 5.5q-62 0 -125 -39z" />
    <glyph glyph-name="Ograve" unicode="&#xd2;" horiz-adv-x="1448" 
d="M811 1379q-159 0 -297.5 -56.5t-241.5 -158t-161 -237.5t-58 -292q0 -185 86.5 -337.5t236.5 -238.5q150 -88 331 -88q204 0 378 101t276 273q102 173 102 374q0 182 -87 334q-86 151 -236 238.5t-329 87.5zM799 1188q132 0 235 -58.5t160.5 -165t57.5 -245.5
q0 -117 -40.5 -220.5t-114 -180t-170.5 -118.5t-210 -42q-130 0 -233 59t-160.5 166t-57.5 244q0 121 39 224t112 179q72 77 169.5 117.5t212.5 40.5zM678 1655l193 -264h125l-111 264h-207z" />
    <glyph glyph-name="Oacute" unicode="&#xd3;" horiz-adv-x="1448" 
d="M811 1379q-159 0 -297.5 -56.5t-241.5 -158t-161 -237.5t-58 -292q0 -185 86.5 -337.5t236.5 -238.5q150 -88 331 -88q204 0 378 101t276 273q102 173 102 374q0 182 -87 334q-86 151 -236 238.5t-329 87.5zM799 1188q132 0 235 -58.5t160.5 -165t57.5 -245.5
q0 -117 -40.5 -220.5t-114 -180t-170.5 -118.5t-210 -42q-130 0 -233 59t-160.5 166t-57.5 244q0 121 39 224t112 179q72 77 169.5 117.5t212.5 40.5zM699 1391h145l271 264h-244z" />
    <glyph glyph-name="Ocircumflex" unicode="&#xd4;" horiz-adv-x="1448" 
d="M811 1379q-159 0 -297.5 -56.5t-241.5 -158t-161 -237.5t-58 -292q0 -185 86.5 -337.5t236.5 -238.5q150 -88 331 -88q204 0 378 101t276 273q102 173 102 374q0 182 -87 334q-86 151 -236 238.5t-329 87.5zM799 1188q132 0 235 -58.5t160.5 -165t57.5 -245.5
q0 -117 -40.5 -220.5t-114 -180t-170.5 -118.5t-210 -42q-130 0 -233 59t-160.5 166t-57.5 244q0 121 39 224t112 179q72 77 169.5 117.5t212.5 40.5zM555 1391h178l152 158l90 -158h162l-146 264h-184z" />
    <glyph glyph-name="Otilde" unicode="&#xd5;" horiz-adv-x="1448" 
d="M811 1379q-159 0 -297 -57q-139 -56 -242 -157.5t-161 -237.5t-58 -292q0 -185 86.5 -337.5t236.5 -238.5q150 -88 331 -88q204 0 378 101t276 273q102 173 102 374q0 182 -87 334q-86 151 -236 238.5t-329 87.5zM799 1188q132 0 235 -58.5t160.5 -165t57.5 -245.5
q0 -117 -40.5 -220.5t-114 -180t-170.5 -118.5t-210 -42q-130 0 -233 59t-160.5 166t-57.5 244q0 121 39 224t112 179q72 77 169.5 117.5t212.5 40.5zM580 1532l63 -90q60 39 123 39q39 0 70 -10l45 -25q55 -24 100 -24q92 0 191 92l-62 102q-68 -53 -121 -53q-36 0 -88 20
q-71 37 -129 37q-88 0 -192 -88z" />
    <glyph glyph-name="Odieresis" unicode="&#xd6;" horiz-adv-x="1448" 
d="M811 1379q-159 0 -297 -57q-139 -56 -242 -157.5t-161 -237.5t-58 -292q0 -185 86.5 -337.5t236.5 -238.5q150 -88 331 -88q204 0 378 101t276 273q102 173 102 374q0 182 -87 334q-86 151 -236 238.5t-329 87.5zM799 1188q132 0 235 -58.5t160.5 -165t57.5 -245.5
q0 -117 -40.5 -220.5t-114 -180t-170.5 -118.5t-210 -42q-130 0 -233 59t-160.5 166t-57.5 244q0 121 39 224t112 179q72 77 169.5 117.5t212.5 40.5zM721 1641q-49 0 -77.5 -36t-28.5 -83q0 -45 28 -79t78 -34q52 0 81 35q30 34 30 80q0 48 -29.5 82.5t-81.5 34.5z
M1051 1641q-51 0 -79 -36q-27 -35 -27 -83q0 -45 27 -79t79 -34q53 0 82 34.5t29 80.5q0 49 -29 83t-82 34z" />
    <glyph glyph-name="Oslash" unicode="&#xd8;" horiz-adv-x="1448" 
d="M248 154l-98 -125l82 -70l106 121q142 -109 365 -109q207 0 382 100.5t276.5 272.5t101.5 375q0 273 -201 477l99 123l-83 72l-106 -119q-157 107 -373 107q-204 0 -375.5 -100t-271 -272.5t-99.5 -375.5q0 -143 48.5 -257.5t146.5 -219.5zM377 307q-111 117 -111 328
q0 153 69 280t190 200t268 73q152 0 258 -67zM459 230l678 817q64 -81 90 -153q25 -71 25 -175q0 -152 -76 -281q-78 -130 -203.5 -206t-263.5 -76q-133 0 -250 74z" />
    <glyph glyph-name="Ugrave" unicode="&#xd9;" horiz-adv-x="1051" 
d="M1131 1350h-193l-114 -889q-19 -149 -107.5 -236.5t-222.5 -87.5q-114 0 -186 64.5t-72 171.5q0 54 12 123l105 854h-193l-98 -776l-9 -56q0 -15 -2 -44t-3 -56q-1 -28 -1 -45q0 -186 95 -281q60 -65 153 -100t203 -35q108 0 198 35t157.5 101t109.5 163q43 96 57 215z
M486 1655l188 -264h125l-109 264h-204z" />
    <glyph glyph-name="Uacute" unicode="&#xda;" horiz-adv-x="1051" 
d="M1131 1350h-193l-114 -889q-19 -149 -107.5 -236.5t-222.5 -87.5q-114 0 -186 64.5t-72 171.5q0 54 12 123l105 854h-193l-98 -776l-9 -56q0 -15 -2 -44t-3 -56q-1 -28 -1 -45q0 -186 95 -281q60 -65 153 -100t203 -35q108 0 198 35t157.5 101t109.5 163q43 96 57 215z
M502 1391h145l267 264h-240z" />
    <glyph glyph-name="Ucircumflex" unicode="&#xdb;" horiz-adv-x="1051" 
d="M1131 1350h-193l-114 -888q-19 -150 -107.5 -237.5t-222.5 -87.5q-114 0 -186 64.5t-72 171.5q0 54 12 123l105 854h-193l-98 -776l-9 -56q0 -15 -2 -44t-3 -56q-1 -28 -1 -45q0 -186 95 -281q60 -65 153 -100t203 -35q108 0 198 35t157.5 101.5t109.5 162.5
q43 96 57 216zM365 1391h174l151 158l91 -158h162l-148 264h-182z" />
    <glyph glyph-name="Udieresis" unicode="&#xdc;" horiz-adv-x="1051" 
d="M1131 1350h-193l-114 -889q-19 -149 -107.5 -236.5t-222.5 -87.5q-114 0 -186 64.5t-72 171.5q0 54 12 123l105 854h-193l-98 -776l-9 -56q0 -15 -2 -44t-3 -56q-1 -28 -1 -45q0 -186 95 -281q60 -65 153 -100t203 -35q108 0 198 35t157.5 101t109.5 163q43 96 57 215z
M531 1641q-55 0 -85 -35t-30 -82q0 -46 30 -80.5t85 -34.5q50 0 79 35q30 34 30 80q0 48 -29 82.5t-80 34.5zM858 1641q-51 0 -80 -35q-28 -36 -28 -82t28 -80.5t80 -34.5t80 35q29 34 29 80q0 48 -28.5 82.5t-80.5 34.5z" />
    <glyph glyph-name="Yacute" unicode="&#xdd;" horiz-adv-x="1004" 
d="M99 1350l361 -764l-80 -586h192l80 611l489 739h-215l-371 -582l-246 582h-210zM478 1391h147l265 264h-238z" />
    <glyph glyph-name="germandbls" unicode="&#xdf;" 
d="M20 699h86l-86 -699h180l130 1022q14 105 37.5 165.5t65 89t106.5 28.5q87 0 135.5 -60.5t48.5 -142.5q0 -70 -34.5 -131t-96.5 -86q-32 -15 -66 -20.5t-123 -8.5l-16 -153q173 -3 249 -65q77 -63 77 -197q0 -88 -33.5 -155.5t-96 -103.5t-147.5 -36q-50 0 -122 16
l-21 -149q119 -30 176 -30q122 0 219 59t151 163q54 105 54 236q0 142 -63.5 224t-198.5 116q85 17 146 64t92.5 120.5t31.5 163.5q0 99 -44 175.5t-123.5 119.5t-184.5 43q-108 0 -193 -47t-138 -136q-52 -90 -67 -211l-24 -217h-90z" />
    <glyph glyph-name="agrave" unicode="&#xe0;" 
d="M652 97l-13 -97h185l106 848h-188l-17 -121q-86 146 -266 146q-122 0 -224 -66q-101 -66 -160 -179q-58 -113 -58 -247q0 -115 48.5 -208t134 -145.5t191.5 -52.5q84 0 142 27.5t119 94.5zM469 711q109 0 165 -72t56 -176q0 -80 -32.5 -157t-93 -125t-140.5 -48
q-74 0 -125 34.5t-76 92t-25 125.5q0 78 33 154t95 124t143 48zM395 1264l193 -262h123l-107 262h-209z" />
    <glyph glyph-name="aacute" unicode="&#xe1;" 
d="M652 97l-13 -97h185l106 848h-188l-17 -121q-86 146 -266 146q-122 0 -224 -66q-101 -66 -160 -179q-58 -113 -58 -247q0 -115 48.5 -208t134 -145.5t191.5 -52.5q84 0 142 27.5t119 94.5zM469 711q109 0 165 -72t56 -176q0 -80 -32.5 -157t-93 -125t-140.5 -48
q-74 0 -125 34.5t-76 92t-25 125.5q0 78 33 154t95 124t143 48zM411 1002h144l273 262h-240z" />
    <glyph glyph-name="acircumflex" unicode="&#xe2;" 
d="M652 97l-13 -97h185l106 848h-188l-17 -121q-86 146 -266 146q-122 0 -224 -66q-101 -66 -160 -179q-58 -113 -58 -247q0 -115 48.5 -208t134 -145.5t191.5 -52.5q84 0 142 27.5t119 94.5zM469 711q109 0 165 -72t56 -176q0 -80 -32.5 -157t-93 -125t-140.5 -48
q-74 0 -125 34.5t-76 92t-25 125.5q0 78 33 154t95 124t143 48zM278 1001h175l151 158l86 -158h162l-145 263h-185z" />
    <glyph glyph-name="atilde" unicode="&#xe3;" 
d="M652 97l-13 -97h185l106 848h-188l-17 -121q-86 146 -266 146q-122 0 -224 -66q-101 -66 -160 -179q-58 -113 -58 -247q0 -115 48.5 -208t134 -145.5t191.5 -52.5q84 0 142 27.5t119 94.5zM469 711q109 0 165 -72t56 -176q0 -80 -32.5 -157t-93 -125t-140.5 -48
q-74 0 -125 34.5t-76 92t-25 125.5q0 78 33 154t95 124t143 48zM297 1143l60 -92q65 39 125 39q35 0 71 -13l51 -22q53 -23 95 -23q98 0 190 93l-65 100q-61 -51 -117 -51q-37 0 -82 22q-76 33 -133 33q-99 0 -195 -86z" />
    <glyph glyph-name="adieresis" unicode="&#xe4;" 
d="M652 97l-13 -97h185l106 848h-188l-17 -121q-86 146 -266 146q-122 0 -224 -66q-101 -66 -160 -179q-58 -113 -58 -247q0 -115 48.5 -208t134 -145.5t191.5 -52.5q84 0 142 27.5t119 94.5zM469 711q109 0 165 -72t56 -176q0 -80 -32.5 -157t-93 -125t-140.5 -48
q-74 0 -125 34.5t-76 92t-25 125.5q0 78 33 154t95 124t143 48zM445 1247q-55 0 -85.5 -33.5t-30.5 -78.5t30.5 -79t85.5 -34q49 0 77.5 34t28.5 79t-28 78.5t-78 33.5zM772 1247q-52 0 -81 -33.5t-29 -78.5q0 -44 29 -78q30 -35 81 -35t79 33.5t28 79.5t-28 79t-79 33z" />
    <glyph glyph-name="aring" unicode="&#xe5;" 
d="M652 97l-13 -97h185l106 848h-188l-17 -121q-86 146 -266 146q-122 0 -224 -66q-101 -66 -160 -179q-58 -113 -58 -247q0 -115 48.5 -208t134 -145.5t191.5 -52.5q84 0 142 27.5t119 94.5zM469 711q109 0 165 -72t56 -176q0 -80 -32.5 -157t-93 -125t-140.5 -48
q-74 0 -125 34.5t-76 92t-25 125.5q0 78 33 154t95 124t143 48zM604 1209q39 0 59.5 -25.5t20.5 -60.5q0 -34 -21 -59t-59 -25q-40 0 -64 25.5t-24 58.5q0 34 23.5 60t64.5 26zM604 1319q-83 0 -139 -56q-58 -57 -58 -138q0 -51 27 -95.5t72.5 -70t97.5 -25.5q86 0 133 57
q48 56 48 134t-48 136q-47 58 -133 58z" />
    <glyph glyph-name="ae" unicode="&#xe6;" horiz-adv-x="1485" 
d="M711 133q56 -78 140 -117q84 -41 177 -41q108 0 209 49q102 48 167 134l-118 108q-113 -129 -254 -129q-217 0 -217 250h650q0 132 -8 196q-10 63 -37 107q-45 90 -130 136q-84 47 -184 47q-91 0 -177 -36.5t-144 -101.5q-62 80 -160.5 118t-214.5 38q-96 0 -191 -26
l-23 -183q103 28 138 34.5t82 6.5q130 0 183 -52.5t55 -182.5q-119 75 -289 75q-157 0 -267.5 -72.5t-110.5 -215.5q0 -82 49.5 -150t135.5 -106q85 -40 189 -40q212 0 350 154zM391 441q97 0 160 -42q62 -41 62 -104q0 -51 -33 -89q-32 -38 -86 -57q-53 -20 -111 -20
q-88 0 -151.5 42t-63.5 120q0 65 62.5 107.5t160.5 42.5zM840 522q61 195 254 195q176 0 201 -195h-455z" />
    <glyph glyph-name="ccedilla" unicode="&#xe7;" horiz-adv-x="738" 
d="M351 -25l-115 -129l43 -49q28 14 63 14q66 0 66 -57q0 -59 -76 -59q-65 0 -127 26l-40 -74q82 -45 188 -45q85 0 144 40t59 124q0 60 -42 96q-41 35 -98 35q-13 0 -36 -4l65 74q73 7 122 22q50 16 124 54l22 187q-146 -97 -285 -97q-102 0 -164.5 70t-62.5 184
q0 92 39 167q40 74 110 116.5t156 42.5q72 0 127 -25q55 -24 127 -90l25 191q-74 48 -140.5 68t-154.5 20q-137 0 -245 -63q-108 -62 -168 -175q-60 -112 -60 -256q0 -169 86.5 -274t247.5 -134z" />
    <glyph glyph-name="egrave" unicode="&#xe8;" horiz-adv-x="875" 
d="M819 158l-120 108q-112 -133 -267 -133q-218 0 -227 254h657q0 128 -14 201t-49 123q-107 166 -313 166q-135 0 -241 -64q-106 -63 -165.5 -176.5t-59.5 -255.5q0 -127 50 -220q48 -93 141 -143.5t221 -50.5q120 0 213.5 46t173.5 145zM223 522q10 59 46.5 103.5t88.5 67
t107 22.5q54 0 100.5 -21t75.5 -64.5t33 -107.5h-451zM377 1264l191 -262h127l-107 262h-211z" />
    <glyph glyph-name="eacute" unicode="&#xe9;" horiz-adv-x="875" 
d="M819 158l-120 108q-112 -133 -267 -133q-218 0 -227 254h657q0 128 -14 201t-49 123q-107 166 -313 166q-135 0 -241 -64q-106 -63 -165.5 -176.5t-59.5 -255.5q0 -127 50 -220q48 -93 141 -143.5t221 -50.5q120 0 213.5 46t173.5 145zM223 522q10 59 46.5 103.5t88.5 67
t107 22.5q54 0 100.5 -21t75.5 -64.5t33 -107.5h-451zM395 1002h148l268 262h-243z" />
    <glyph glyph-name="ecircumflex" unicode="&#xea;" horiz-adv-x="875" 
d="M819 158l-120 108q-112 -133 -267 -133q-218 0 -227 254h657q0 128 -14 201t-49 123q-107 166 -313 166q-135 0 -241 -64q-106 -63 -165.5 -176.5t-59.5 -255.5q0 -127 50 -220q48 -93 141 -143.5t221 -50.5q120 0 213.5 46t173.5 145zM223 522q10 59 46.5 103.5t88.5 67
t107 22.5q54 0 100.5 -21t75.5 -64.5t33 -107.5h-451zM258 1002h178l152 157l86 -157h162l-146 262h-184z" />
    <glyph glyph-name="edieresis" unicode="&#xeb;" horiz-adv-x="875" 
d="M819 158l-120 108q-112 -133 -267 -133q-218 0 -227 254h657q0 128 -14 201t-49 123q-107 166 -313 166q-135 0 -241 -64q-106 -63 -165.5 -176.5t-59.5 -255.5q0 -127 50 -220q48 -93 141 -143.5t221 -50.5q120 0 213.5 46t173.5 145zM223 522q10 59 46.5 103.5t88.5 67
t107 22.5q54 0 100.5 -21t75.5 -64.5t33 -107.5h-451zM424 1247q-52 0 -81.5 -33t-29.5 -79q0 -45 30 -79t81 -34q49 0 78 34t29 79t-28.5 78.5t-78.5 33.5zM750 1247q-52 0 -79.5 -33t-27.5 -79q0 -45 28 -79t79 -34t80.5 34t29.5 79q0 46 -29 79t-81 33z" />
    <glyph glyph-name="igrave" unicode="&#xec;" horiz-adv-x="258" 
d="M-17 0h181l111 848h-185zM61 1264l197 -263h121l-104 263h-214z" />
    <glyph glyph-name="iacute" unicode="&#xed;" horiz-adv-x="258" 
d="M-16 0h181l110 848h-185zM87 1001h141l270 263h-240z" />
    <glyph glyph-name="icircumflex" unicode="&#xee;" horiz-adv-x="258" 
d="M-17 0h181l111 848h-185zM-51 1001h174l152 158l86 -158h161l-145 263h-184z" />
    <glyph glyph-name="idieresis" unicode="&#xef;" horiz-adv-x="258" 
d="M-17 0h181l111 848h-185zM111 1247q-53 0 -83.5 -34t-30.5 -78t32 -78q30 -35 82 -35q49 0 77.5 34t28.5 79t-28 78.5t-78 33.5zM441 1247q-54 0 -82.5 -33.5t-28.5 -78.5t29 -79t82 -34q50 0 79 34t29 79q0 46 -28.5 79t-79.5 33z" />
    <glyph glyph-name="ntilde" unicode="&#xf1;" horiz-adv-x="789" 
d="M-8 0l107 849l184 -1l-17 -108q106 129 252 129q72 0 130 -29t91 -80q34 -52 34 -119q0 -16 -8 -119l-70 -522h-180l65 543q0 80 -22.5 124t-98.5 44q-90 0 -150 -66t-77 -184l-60 -461h-180zM232 1143q102 86 198 86q62 0 125 -33q50 -20 90 -20q54 0 115 49l68 -100
q-96 -93 -195 -93q-44 0 -94 23q-32 16 -58 25.5t-63 9.5q-56 0 -125 -39z" />
    <glyph glyph-name="ograve" unicode="&#xf2;" 
d="M486 877q-130 0 -239 -63.5t-172 -172.5t-63 -237q0 -123 54.5 -222t151.5 -154q96 -57 218 -57q132 0 240 63q108 61 168.5 170.5t60.5 244.5q0 121 -54 219t-149 153q-96 56 -216 56zM477 711q78 0 132.5 -36.5t81 -96t26.5 -127.5q0 -78 -32.5 -151.5t-96.5 -119.5
q-63 -47 -147 -47q-119 0 -180 75q-63 75 -63 183q0 79 34 153t98 120q63 47 147 47zM391 1264l197 -262h123l-107 262h-213z" />
    <glyph glyph-name="oacute" unicode="&#xf3;" 
d="M486 877q-130 0 -239 -63.5t-172 -172.5t-63 -237q0 -123 54.5 -222t151.5 -154q96 -57 218 -57q132 0 240 63q108 61 168.5 170.5t60.5 244.5q0 121 -54 219t-149 153q-96 56 -216 56zM477 711q78 0 132.5 -36.5t81 -96t26.5 -127.5q0 -78 -32.5 -151.5t-96.5 -119.5
q-63 -47 -147 -47q-119 0 -180 75q-63 75 -63 183q0 79 34 153t98 120q63 47 147 47zM411 1002h144l273 262h-240z" />
    <glyph glyph-name="ocircumflex" unicode="&#xf4;" 
d="M486 877q-130 0 -239 -63.5t-172 -172.5t-63 -237q0 -123 54.5 -222t151.5 -154q96 -57 218 -57q132 0 240 63q108 61 168.5 170.5t60.5 244.5q0 121 -54 219t-149 153q-96 56 -216 56zM477 711q78 0 132.5 -36.5t81 -96t26.5 -127.5q0 -78 -32.5 -151.5t-96.5 -119.5
q-63 -47 -147 -47q-119 0 -180 75q-63 75 -63 183q0 79 34 153t98 120q63 47 147 47zM274 1002h179l151 157l86 -157h162l-145 262h-185z" />
    <glyph glyph-name="otilde" unicode="&#xf5;" 
d="M486 877q-130 0 -239 -63.5t-172 -172.5t-63 -237q0 -123 54.5 -222t151.5 -154q96 -57 218 -57q132 0 240 63q108 61 168.5 170.5t60.5 244.5q0 121 -54 219t-149 153q-96 56 -216 56zM477 711q78 0 132.5 -36.5t81 -96t26.5 -127.5q0 -78 -32.5 -151.5t-96.5 -119.5
q-63 -47 -147 -47q-119 0 -180 75q-63 75 -63 183q0 79 34 153t98 120q63 47 147 47zM297 1143l60 -92q65 39 120 39q36 0 72 -13l51 -22q51 -21 99 -21q96 0 186 91l-61 100q-64 -51 -119 -51q-33 0 -84 22q-76 33 -131 33q-97 0 -193 -86z" />
    <glyph glyph-name="odieresis" unicode="&#xf6;" 
d="M486 877q-130 0 -239 -63.5t-172 -172.5t-63 -237q0 -123 54.5 -222t151.5 -154q96 -57 218 -57q132 0 240 63q108 61 168.5 170.5t60.5 244.5q0 121 -54 219t-149 153q-96 56 -216 56zM477 711q78 0 132.5 -36.5t81 -96t26.5 -127.5q0 -78 -32.5 -151.5t-96.5 -119.5
q-63 -47 -147 -47q-119 0 -180 75q-63 75 -63 183q0 79 34 153t98 120q63 47 147 47zM441 1247q-54 0 -82 -33q-30 -34 -30 -79t29.5 -79t82.5 -34q49 0 77.5 34t28.5 79t-28 78.5t-78 33.5zM768 1247q-52 0 -81 -33.5t-29 -78.5q0 -44 29 -78q30 -35 81 -35q52 0 80 34
q29 33 29 79t-28 79t-81 33z" />
    <glyph glyph-name="oslash" unicode="&#xf8;" 
d="M129 101l-82 -101l76 -64l82 97q63 -35 113 -48q51 -14 118 -14q130 0 238 71q108 69 168.5 182t60.5 235q0 168 -108 285l80 100l-72 64l-86 -101q-97 70 -227 70q-132 0 -242 -70t-173 -183.5t-63 -234.5q0 -166 117 -288zM244 234q-50 72 -50 162q0 79 40 151
q40 73 107 117q66 45 143 45q60 0 129 -35zM317 166l361 445q39 -70 39 -152t-36 -159t-99 -125q-62 -48 -135 -48q-66 0 -130 39z" />
    <glyph glyph-name="ugrave" unicode="&#xf9;" horiz-adv-x="789" 
d="M803 848h-182l-68 -512q-7 -91 -57 -141q-49 -49 -131 -49q-76 0 -113 45t-37 116q0 17 4 54l64 487h-184l-62 -495q-4 -23 -4 -64q0 -139 85.5 -224.5t234.5 -85.5q342 0 389 386zM334 1264l188 -263h125l-108 263h-205z" />
    <glyph glyph-name="uacute" unicode="&#xfa;" horiz-adv-x="789" 
d="M803 848h-182l-68 -512q-7 -91 -57 -141q-49 -49 -131 -49q-76 0 -113 45t-37 116q0 17 4 54l64 487h-184l-62 -495q-4 -23 -4 -64q0 -139 85.5 -224.5t234.5 -85.5q342 0 389 386zM350 1002h144l270 262h-242z" />
    <glyph glyph-name="ucircumflex" unicode="&#xfb;" horiz-adv-x="789" 
d="M803 848h-182l-68 -512q-7 -91 -57 -141q-49 -49 -131 -49q-76 0 -113 45t-37 116q0 17 4 54l64 487h-184l-62 -495q-4 -23 -4 -64q0 -139 85.5 -224.5t234.5 -85.5q342 0 389 386zM211 1001h172l156 158l90 -158h160l-146 263h-184z" />
    <glyph glyph-name="udieresis" unicode="&#xfc;" horiz-adv-x="789" 
d="M803 848h-182l-68 -512q-7 -91 -57 -141q-49 -49 -131 -49q-76 0 -113 45t-37 116q0 17 4 54l64 487h-184l-62 -495q-4 -23 -4 -64q0 -139 85.5 -224.5t234.5 -85.5q342 0 389 386zM377 1247q-52 0 -82.5 -33.5t-30.5 -78.5q0 -44 30.5 -78.5t82.5 -34.5t80 34
q29 33 29 79t-28 79t-81 33zM707 1247q-52 0 -80.5 -33t-28.5 -79q0 -44 29 -78.5t80 -34.5q50 0 79 34t29 79q0 46 -28.5 79t-79.5 33z" />
    <glyph glyph-name="yacute" unicode="&#xfd;" horiz-adv-x="828" 
d="M-41 -400h193l131 213l610 1035h-194l-316 -557l-147 557h-195l230 -741zM369 1002h145l271 262h-242z" />
    <glyph glyph-name="ydieresis" unicode="&#xff;" horiz-adv-x="828" 
d="M-41 -400h193l131 213l610 1035h-194l-316 -557l-147 557h-195l230 -741zM396 1247q-53 0 -82 -33.5t-29 -78.5t29.5 -79t81.5 -34q51 0 80.5 34t29.5 79q0 46 -29 79t-81 33zM725 1247q-51 0 -78.5 -33t-27.5 -79q0 -45 28 -79t78 -34q52 0 81 34q30 34 30 79
q0 46 -29 79t-82 33z" />
    </font>
</defs>
</svg>
